<?xml version="1.0" standalone="no"?>
<!DOCTYPE svg PUBLIC "-//W3C//DTD SVG 20010904//EN"
 "http://www.w3.org/TR/2001/REC-SVG-20010904/DTD/svg10.dtd">
<svg version="1.0" xmlns="http://www.w3.org/2000/svg"
 width="24.000000pt" height="24.000000pt" viewBox="0 0 24.000000 24.000000"
 preserveAspectRatio="xMidYMid meet">

<g transform="translate(0.000000,24.000000) scale(0.100000,-0.100000)"
fill="#000000" stroke="none">
<path d="M12 228 c-16 -16 -15 -53 1 -66 7 -6 58 -13 113 -14 98 -3 99 -3 99
-28 0 -25 -1 -25 -99 -28 -105 -3 -126 -11 -126 -46 0 -39 19 -46 121 -46 78
0 99 3 110 17 13 15 12 15 -8 5 -34 -19 -188 -16 -204 4 -9 11 -10 20 -2 32 8
14 32 18 114 22 l104 5 0 35 0 35 -104 5 c-82 4 -106 8 -114 22 -8 12 -7 21 3
33 11 13 30 15 104 13 85 -3 91 -4 103 -28 11 -22 13 -23 13 -4 0 11 -5 25
-12 32 -16 16 -200 16 -216 0z"/>
<path d="M0 125 c0 -8 5 -15 10 -15 6 0 10 7 10 15 0 8 -4 15 -10 15 -5 0 -10
-7 -10 -15z"/>
<path d="M220 49 c0 -5 5 -7 10 -4 6 3 10 8 10 11 0 2 -4 4 -10 4 -5 0 -10 -5
-10 -11z"/>
</g>
</svg>
