<?xml version="1.0" standalone="no"?>
<!DOCTYPE svg PUBLIC "-//W3C//DTD SVG 20010904//EN"
 "http://www.w3.org/TR/2001/REC-SVG-20010904/DTD/svg10.dtd">
<svg version="1.0" xmlns="http://www.w3.org/2000/svg"
 width="27.000000pt" height="26.000000pt" viewBox="0 0 27.000000 26.000000"
 preserveAspectRatio="xMidYMid meet">

<g transform="translate(0.000000,26.000000) scale(0.100000,-0.100000)"
fill="#000000" stroke="none">
<path d="M34 227 c-24 -21 -28 -31 -28 -88 l-1 -65 62 -2 c76 -2 110 21 120
80 5 32 1 41 -25 68 -39 38 -88 41 -128 7z m111 -57 c-8 -13 -95 -13 -95 0 0
6 23 10 51 10 31 0 48 -4 44 -10z m-35 -30 c0 -5 -13 -10 -30 -10 -16 0 -30 5
-30 10 0 6 14 10 30 10 17 0 30 -4 30 -10z"/>
<path d="M208 165 c9 -52 -45 -124 -95 -125 -17 -1 -17 -1 1 -15 13 -9 40 -14
80 -13 l62 2 2 62 c1 49 -3 67 -19 88 -26 33 -38 33 -31 1z"/>
</g>
</svg>
