<?xml version="1.0" standalone="no"?>
<!DOCTYPE svg PUBLIC "-//W3C//DTD SVG 20010904//EN"
 "http://www.w3.org/TR/2001/REC-SVG-20010904/DTD/svg10.dtd">
<svg version="1.0" xmlns="http://www.w3.org/2000/svg"
 width="21.000000pt" height="18.000000pt" viewBox="0 0 21.000000 18.000000"
 preserveAspectRatio="xMidYMid meet">

<g transform="translate(0.000000,18.000000) scale(0.100000,-0.100000)"
fill="#000000" stroke="none">
<path d="M125 171 l70 -6 0 -55 0 -55 -47 -5 c-26 -3 -55 -13 -66 -23 -24 -22
-32 -21 -32 2 0 10 -9 21 -19 24 -16 4 -21 16 -24 53 l-3 49 -2 -53 c-2 -46 1
-55 18 -59 11 -3 20 -11 20 -19 0 -23 20 -26 48 -5 16 11 48 21 73 23 l44 3 0
65 0 65 -75 1 -75 1 70 -6z"/>
<path d="M98 123 c12 -2 30 -2 40 0 9 3 -1 5 -23 4 -22 0 -30 -2 -17 -4z"/>
<path d="M73 93 c9 -2 25 -2 35 0 9 3 1 5 -18 5 -19 0 -27 -2 -17 -5z"/>
</g>
</svg>
