<?xml version="1.0" standalone="no"?>
<!DOCTYPE svg PUBLIC "-//W3C//DTD SVG 20010904//EN"
 "http://www.w3.org/TR/2001/REC-SVG-20010904/DTD/svg10.dtd">
<svg version="1.0" xmlns="http://www.w3.org/2000/svg"
 width="29.000000pt" height="27.000000pt" viewBox="0 0 29.000000 27.000000"
 preserveAspectRatio="xMidYMid meet">

<g transform="translate(0.000000,27.000000) scale(0.100000,-0.100000)"
fill="#000000" stroke="none">
<path d="M114 233 c-19 -45 -29 -53 -71 -53 -47 0 -51 -19 -12 -51 32 -26 33
-29 23 -66 -11 -43 -8 -63 10 -63 19 0 91 53 78 58 -6 2 -25 -6 -42 -18 l-31
-22 6 48 c7 47 5 50 -27 74 l-33 25 45 5 c39 4 47 9 60 37 8 18 18 33 22 33 4
0 14 -16 22 -35 14 -32 19 -35 55 -35 23 0 41 -2 41 -5 0 -3 -14 -18 -32 -33
-29 -27 -30 -31 -20 -62 16 -44 15 -50 -5 -50 -13 0 -14 -3 -6 -11 7 -7 19 -9
29 -5 16 6 16 19 -1 81 -4 15 2 25 25 40 41 27 40 55 -2 55 -42 0 -58 11 -77
51 -23 46 -39 47 -57 2z"/>
</g>
</svg>
