<?xml version="1.0" standalone="no"?>
<!DOCTYPE svg PUBLIC "-//W3C//DTD SVG 20010904//EN"
 "http://www.w3.org/TR/2001/REC-SVG-20010904/DTD/svg10.dtd">
<svg version="1.0" xmlns="http://www.w3.org/2000/svg"
 width="27.000000pt" height="27.000000pt" viewBox="0 0 27.000000 27.000000"
 preserveAspectRatio="xMidYMid meet">

<g transform="translate(0.000000,27.000000) scale(0.100000,-0.100000)"
fill="#000000" stroke="none">
<path d="M70 252 c-47 -24 -74 -72 -65 -119 9 -47 54 -93 92 -92 l28 1 -32 9
c-45 13 -73 53 -73 104 0 36 5 48 31 69 44 37 101 36 140 -3 36 -36 38 -77 7
-132 l-22 -40 26 -26 c27 -27 54 -26 64 2 7 16 -12 45 -28 45 -6 0 -5 -7 2
-15 7 -8 9 -22 6 -31 -6 -15 -9 -14 -30 6 l-24 22 19 32 c23 38 25 103 3 135
-16 22 -70 51 -96 51 -7 0 -29 -8 -48 -18z"/>
<path d="M51 194 c-22 -28 -25 -42 -15 -68 10 -27 21 -18 16 15 -3 22 2 37 19
55 12 13 18 24 11 24 -6 0 -20 -12 -31 -26z"/>
</g>
</svg>
